<svg viewBox="0 0 375 723" fill="none" preserveAspectRatio="xMidYMax meet" xmlns="http://www.w3.org/2000/svg">
	<path d="M222.054 71.1958L221.497 70.3653L221.201 70.564L221.097 70.9051L222.054 71.1958ZM210.054 110.696L210.719 111.443L210.929 111.256L211.011 110.987L210.054 110.696ZM186.476 131.696L186.991 132.553L187.072 132.505L187.141 132.443L186.476 131.696ZM136.554 161.696L136.039 160.839L136.003 160.86L135.969 160.885L136.554 161.696ZM78.3552 203.696L77.77 202.885L77.6757 202.953L77.5995 203.041L78.3552 203.696ZM27.054 269.624L26.2348 269.051L25.507 270.09L26.6882 270.555L27.054 269.624ZM78.3552 289.792L78.7674 288.881L78.7445 288.871L78.7211 288.861L78.3552 289.792ZM153.118 323.608L153.862 322.94L153.721 322.784L153.53 322.697L153.118 323.608ZM186.476 360.754L185.732 361.422L185.781 361.476L185.836 361.522L186.476 360.754ZM266.781 427.622L267.663 427.15L267.571 426.978L267.421 426.853L266.781 427.622ZM289 672.5L289.811 673.085L290.3 672.407L289.719 671.805L289 672.5ZM260.5 712L260.167 712.943L260.873 713.193L261.311 712.585L260.5 712ZM219.5 697.5L218.5 697.5L218.5 698.207L219.167 698.443L219.5 697.5ZM219.5 651.5L219.297 650.521L218.5 650.686L218.5 651.5L219.5 651.5ZM51.554 234.624L50.7983 233.969L50.7644 234.008L50.7348 234.051L51.554 234.624ZM324 534.5L324.863 535.005L325.146 534.522L324.882 534.028L324 534.5ZM266.224 40.3653L221.497 70.3653L222.611 72.0263L267.338 42.0263L266.224 40.3653ZM221.097 70.9051L209.097 110.405L211.011 110.987L223.011 71.4865L221.097 70.9051ZM209.389 109.949L185.811 130.949L187.141 132.443L210.719 111.443L209.389 109.949ZM185.961 130.839L136.039 160.839L137.069 162.553L186.991 132.553L185.961 130.839ZM135.969 160.885L77.77 202.885L78.9404 204.507L137.139 162.507L135.969 160.885ZM26.6882 270.555L77.9894 290.723L78.7211 288.861L27.4199 268.694L26.6882 270.555ZM77.9431 290.703L152.705 324.519L153.53 322.697L78.7674 288.881L77.9431 290.703ZM152.374 324.277L185.732 361.422L187.22 360.086L153.862 322.94L152.374 324.277ZM185.836 361.522L266.141 428.39L267.421 426.853L187.116 359.985L185.836 361.522ZM259.781 643.695L288.281 673.195L289.719 671.805L261.219 642.305L259.781 643.695ZM288.189 671.915L259.689 711.415L261.311 712.585L289.811 673.085L288.189 671.915ZM260.833 711.057L219.833 696.557L219.167 698.443L260.167 712.943L260.833 711.057ZM220.5 697.5L220.5 651.5L218.5 651.5L218.5 697.5L220.5 697.5ZM219.703 652.479L260.703 643.979L260.297 642.021L219.297 650.521L219.703 652.479ZM77.5995 203.041L50.7983 233.969L52.3098 235.279L79.1109 204.351L77.5995 203.041ZM50.7348 234.051L26.2348 269.051L27.8733 270.198L52.3733 235.198L50.7348 234.051ZM265.9 428.094L323.118 534.972L324.882 534.028L267.663 427.15L265.9 428.094ZM323.137 533.995L259.637 642.495L261.363 643.505L324.863 535.005L323.137 533.995Z" fill="white" />
	<g filter="url(#filter0_d_3_39)">
		<circle cx="266.768" cy="42" r="3" fill="white" />
	</g>
	<g filter="url(#filter1_d_3_39)">
		<circle cx="27.2685" cy="269.5" r="2.5" fill="white" />
	</g>
	<g filter="url(#filter2_d_3_39)">
		<circle cx="136.269" cy="161.5" r="3.5" fill="white" />
	</g>
	<g filter="url(#filter3_d_3_39)">
		<circle cx="79.7685" cy="203" r="3" fill="white" />
	</g>
	<g filter="url(#filter4_d_3_39)">
		<circle cx="222.768" cy="71" r="2" fill="white" />
	</g>
	<g filter="url(#filter5_d_3_39)">
		<circle cx="208.768" cy="111" r="4" fill="white" />
	</g>
	<g filter="url(#filter6_d_3_39)">
		<circle cx="187.768" cy="131" r="3" fill="white" />
	</g>
	<g filter="url(#filter7_d_3_39)">
		<circle cx="152.768" cy="324" r="3" fill="white" />
	</g>
	<g filter="url(#filter8_d_3_39)">
		<circle cx="266.768" cy="428" r="4" fill="white" />
	</g>
	<g filter="url(#filter9_d_3_39)">
		<circle cx="219" cy="652" r="4" fill="white" />
	</g>
	<g filter="url(#filter10_d_3_39)">
		<circle cx="261" cy="711" r="4" fill="white" />
	</g>
	<g filter="url(#filter11_d_3_39)">
		<circle cx="261" cy="644" r="4" fill="white" />
	</g>
	<g filter="url(#filter12_d_3_39)">
		<circle cx="219" cy="697" r="4" fill="white" />
	</g>
	<g filter="url(#filter13_d_3_39)">
		<circle cx="289" cy="672" r="4" fill="white" />
	</g>
	<g filter="url(#filter14_d_3_39)">
		<circle cx="323.5" cy="534.5" r="3.5" fill="white" />
	</g>
	<defs>
		<filter id="filter0_d_3_39" x="256.768" y="32" width="20" height="20" filterUnits="userSpaceOnUse" color-interpolation-filters="sRGB">
			<feFlood flood-opacity="0" result="BackgroundImageFix" />
			<feColorMatrix in="SourceAlpha" type="matrix" values="0 0 0 0 0 0 0 0 0 0 0 0 0 0 0 0 0 0 127 0" result="hardAlpha" />
			<feMorphology radius="3" operator="dilate" in="SourceAlpha" result="effect1_dropShadow_3_39" />
			<feOffset />
			<feGaussianBlur stdDeviation="2" />
			<feComposite in2="hardAlpha" operator="out" />
			<feColorMatrix type="matrix" values="0 0 0 0 1 0 0 0 0 1 0 0 0 0 1 0 0 0 0.25 0" />
			<feBlend mode="normal" in2="BackgroundImageFix" result="effect1_dropShadow_3_39" />
			<feBlend mode="normal" in="SourceGraphic" in2="effect1_dropShadow_3_39" result="shape" />
		</filter>
		<filter id="filter1_d_3_39" x="16.7685" y="259" width="21" height="21" filterUnits="userSpaceOnUse" color-interpolation-filters="sRGB">
			<feFlood flood-opacity="0" result="BackgroundImageFix" />
			<feColorMatrix in="SourceAlpha" type="matrix" values="0 0 0 0 0 0 0 0 0 0 0 0 0 0 0 0 0 0 127 0" result="hardAlpha" />
			<feMorphology radius="4" operator="dilate" in="SourceAlpha" result="effect1_dropShadow_3_39" />
			<feOffset />
			<feGaussianBlur stdDeviation="2" />
			<feComposite in2="hardAlpha" operator="out" />
			<feColorMatrix type="matrix" values="0 0 0 0 1 0 0 0 0 1 0 0 0 0 1 0 0 0 0.25 0" />
			<feBlend mode="normal" in2="BackgroundImageFix" result="effect1_dropShadow_3_39" />
			<feBlend mode="normal" in="SourceGraphic" in2="effect1_dropShadow_3_39" result="shape" />
		</filter>
		<filter id="filter2_d_3_39" x="127.769" y="153" width="17" height="17" filterUnits="userSpaceOnUse" color-interpolation-filters="sRGB">
			<feFlood flood-opacity="0" result="BackgroundImageFix" />
			<feColorMatrix in="SourceAlpha" type="matrix" values="0 0 0 0 0 0 0 0 0 0 0 0 0 0 0 0 0 0 127 0" result="hardAlpha" />
			<feMorphology radius="1" operator="dilate" in="SourceAlpha" result="effect1_dropShadow_3_39" />
			<feOffset />
			<feGaussianBlur stdDeviation="2" />
			<feComposite in2="hardAlpha" operator="out" />
			<feColorMatrix type="matrix" values="0 0 0 0 1 0 0 0 0 1 0 0 0 0 1 0 0 0 0.25 0" />
			<feBlend mode="normal" in2="BackgroundImageFix" result="effect1_dropShadow_3_39" />
			<feBlend mode="normal" in="SourceGraphic" in2="effect1_dropShadow_3_39" result="shape" />
		</filter>
		<filter id="filter3_d_3_39" x="70.7685" y="194" width="18" height="18" filterUnits="userSpaceOnUse" color-interpolation-filters="sRGB">
			<feFlood flood-opacity="0" result="BackgroundImageFix" />
			<feColorMatrix in="SourceAlpha" type="matrix" values="0 0 0 0 0 0 0 0 0 0 0 0 0 0 0 0 0 0 127 0" result="hardAlpha" />
			<feMorphology radius="2" operator="dilate" in="SourceAlpha" result="effect1_dropShadow_3_39" />
			<feOffset />
			<feGaussianBlur stdDeviation="2" />
			<feComposite in2="hardAlpha" operator="out" />
			<feColorMatrix type="matrix" values="0 0 0 0 1 0 0 0 0 1 0 0 0 0 1 0 0 0 0.25 0" />
			<feBlend mode="normal" in2="BackgroundImageFix" result="effect1_dropShadow_3_39" />
			<feBlend mode="normal" in="SourceGraphic" in2="effect1_dropShadow_3_39" result="shape" />
		</filter>
		<filter id="filter4_d_3_39" x="213.768" y="62" width="18" height="18" filterUnits="userSpaceOnUse" color-interpolation-filters="sRGB">
			<feFlood flood-opacity="0" result="BackgroundImageFix" />
			<feColorMatrix in="SourceAlpha" type="matrix" values="0 0 0 0 0 0 0 0 0 0 0 0 0 0 0 0 0 0 127 0" result="hardAlpha" />
			<feMorphology radius="3" operator="dilate" in="SourceAlpha" result="effect1_dropShadow_3_39" />
			<feOffset />
			<feGaussianBlur stdDeviation="2" />
			<feComposite in2="hardAlpha" operator="out" />
			<feColorMatrix type="matrix" values="0 0 0 0 1 0 0 0 0 1 0 0 0 0 1 0 0 0 0.25 0" />
			<feBlend mode="normal" in2="BackgroundImageFix" result="effect1_dropShadow_3_39" />
			<feBlend mode="normal" in="SourceGraphic" in2="effect1_dropShadow_3_39" result="shape" />
		</filter>
		<filter id="filter5_d_3_39" x="198.768" y="101" width="20" height="20" filterUnits="userSpaceOnUse" color-interpolation-filters="sRGB">
			<feFlood flood-opacity="0" result="BackgroundImageFix" />
			<feColorMatrix in="SourceAlpha" type="matrix" values="0 0 0 0 0 0 0 0 0 0 0 0 0 0 0 0 0 0 127 0" result="hardAlpha" />
			<feMorphology radius="2" operator="dilate" in="SourceAlpha" result="effect1_dropShadow_3_39" />
			<feOffset />
			<feGaussianBlur stdDeviation="2" />
			<feComposite in2="hardAlpha" operator="out" />
			<feColorMatrix type="matrix" values="0 0 0 0 1 0 0 0 0 1 0 0 0 0 1 0 0 0 0.25 0" />
			<feBlend mode="normal" in2="BackgroundImageFix" result="effect1_dropShadow_3_39" />
			<feBlend mode="normal" in="SourceGraphic" in2="effect1_dropShadow_3_39" result="shape" />
		</filter>
		<filter id="filter6_d_3_39" x="174.768" y="118" width="26" height="26" filterUnits="userSpaceOnUse" color-interpolation-filters="sRGB">
			<feFlood flood-opacity="0" result="BackgroundImageFix" />
			<feColorMatrix in="SourceAlpha" type="matrix" values="0 0 0 0 0 0 0 0 0 0 0 0 0 0 0 0 0 0 127 0" result="hardAlpha" />
			<feMorphology radius="6" operator="dilate" in="SourceAlpha" result="effect1_dropShadow_3_39" />
			<feOffset />
			<feGaussianBlur stdDeviation="2" />
			<feComposite in2="hardAlpha" operator="out" />
			<feColorMatrix type="matrix" values="0 0 0 0 1 0 0 0 0 1 0 0 0 0 1 0 0 0 0.25 0" />
			<feBlend mode="normal" in2="BackgroundImageFix" result="effect1_dropShadow_3_39" />
			<feBlend mode="normal" in="SourceGraphic" in2="effect1_dropShadow_3_39" result="shape" />
		</filter>
		<filter id="filter7_d_3_39" x="141.768" y="313" width="22" height="22" filterUnits="userSpaceOnUse" color-interpolation-filters="sRGB">
			<feFlood flood-opacity="0" result="BackgroundImageFix" />
			<feColorMatrix in="SourceAlpha" type="matrix" values="0 0 0 0 0 0 0 0 0 0 0 0 0 0 0 0 0 0 127 0" result="hardAlpha" />
			<feMorphology radius="4" operator="dilate" in="SourceAlpha" result="effect1_dropShadow_3_39" />
			<feOffset />
			<feGaussianBlur stdDeviation="2" />
			<feComposite in2="hardAlpha" operator="out" />
			<feColorMatrix type="matrix" values="0 0 0 0 1 0 0 0 0 1 0 0 0 0 1 0 0 0 0.25 0" />
			<feBlend mode="normal" in2="BackgroundImageFix" result="effect1_dropShadow_3_39" />
			<feBlend mode="normal" in="SourceGraphic" in2="effect1_dropShadow_3_39" result="shape" />
		</filter>
		<filter id="filter8_d_3_39" x="252.768" y="414" width="28" height="28" filterUnits="userSpaceOnUse" color-interpolation-filters="sRGB">
			<feFlood flood-opacity="0" result="BackgroundImageFix" />
			<feColorMatrix in="SourceAlpha" type="matrix" values="0 0 0 0 0 0 0 0 0 0 0 0 0 0 0 0 0 0 127 0" result="hardAlpha" />
			<feMorphology radius="6" operator="dilate" in="SourceAlpha" result="effect1_dropShadow_3_39" />
			<feOffset />
			<feGaussianBlur stdDeviation="2" />
			<feComposite in2="hardAlpha" operator="out" />
			<feColorMatrix type="matrix" values="0 0 0 0 1 0 0 0 0 1 0 0 0 0 1 0 0 0 0.25 0" />
			<feBlend mode="normal" in2="BackgroundImageFix" result="effect1_dropShadow_3_39" />
			<feBlend mode="normal" in="SourceGraphic" in2="effect1_dropShadow_3_39" result="shape" />
		</filter>
		<filter id="filter9_d_3_39" x="207" y="640" width="24" height="24" filterUnits="userSpaceOnUse" color-interpolation-filters="sRGB">
			<feFlood flood-opacity="0" result="BackgroundImageFix" />
			<feColorMatrix in="SourceAlpha" type="matrix" values="0 0 0 0 0 0 0 0 0 0 0 0 0 0 0 0 0 0 127 0" result="hardAlpha" />
			<feMorphology radius="4" operator="dilate" in="SourceAlpha" result="effect1_dropShadow_3_39" />
			<feOffset />
			<feGaussianBlur stdDeviation="2" />
			<feComposite in2="hardAlpha" operator="out" />
			<feColorMatrix type="matrix" values="0 0 0 0 1 0 0 0 0 1 0 0 0 0 1 0 0 0 0.25 0" />
			<feBlend mode="normal" in2="BackgroundImageFix" result="effect1_dropShadow_3_39" />
			<feBlend mode="normal" in="SourceGraphic" in2="effect1_dropShadow_3_39" result="shape" />
		</filter>
		<filter id="filter10_d_3_39" x="249" y="699" width="24" height="24" filterUnits="userSpaceOnUse" color-interpolation-filters="sRGB">
			<feFlood flood-opacity="0" result="BackgroundImageFix" />
			<feColorMatrix in="SourceAlpha" type="matrix" values="0 0 0 0 0 0 0 0 0 0 0 0 0 0 0 0 0 0 127 0" result="hardAlpha" />
			<feMorphology radius="4" operator="dilate" in="SourceAlpha" result="effect1_dropShadow_3_39" />
			<feOffset />
			<feGaussianBlur stdDeviation="2" />
			<feComposite in2="hardAlpha" operator="out" />
			<feColorMatrix type="matrix" values="0 0 0 0 1 0 0 0 0 1 0 0 0 0 1 0 0 0 0.25 0" />
			<feBlend mode="normal" in2="BackgroundImageFix" result="effect1_dropShadow_3_39" />
			<feBlend mode="normal" in="SourceGraphic" in2="effect1_dropShadow_3_39" result="shape" />
		</filter>
		<filter id="filter11_d_3_39" x="249" y="632" width="24" height="24" filterUnits="userSpaceOnUse" color-interpolation-filters="sRGB">
			<feFlood flood-opacity="0" result="BackgroundImageFix" />
			<feColorMatrix in="SourceAlpha" type="matrix" values="0 0 0 0 0 0 0 0 0 0 0 0 0 0 0 0 0 0 127 0" result="hardAlpha" />
			<feMorphology radius="4" operator="dilate" in="SourceAlpha" result="effect1_dropShadow_3_39" />
			<feOffset />
			<feGaussianBlur stdDeviation="2" />
			<feComposite in2="hardAlpha" operator="out" />
			<feColorMatrix type="matrix" values="0 0 0 0 1 0 0 0 0 1 0 0 0 0 1 0 0 0 0.25 0" />
			<feBlend mode="normal" in2="BackgroundImageFix" result="effect1_dropShadow_3_39" />
			<feBlend mode="normal" in="SourceGraphic" in2="effect1_dropShadow_3_39" result="shape" />
		</filter>
		<filter id="filter12_d_3_39" x="207" y="685" width="24" height="24" filterUnits="userSpaceOnUse" color-interpolation-filters="sRGB">
			<feFlood flood-opacity="0" result="BackgroundImageFix" />
			<feColorMatrix in="SourceAlpha" type="matrix" values="0 0 0 0 0 0 0 0 0 0 0 0 0 0 0 0 0 0 127 0" result="hardAlpha" />
			<feMorphology radius="4" operator="dilate" in="SourceAlpha" result="effect1_dropShadow_3_39" />
			<feOffset />
			<feGaussianBlur stdDeviation="2" />
			<feComposite in2="hardAlpha" operator="out" />
			<feColorMatrix type="matrix" values="0 0 0 0 1 0 0 0 0 1 0 0 0 0 1 0 0 0 0.25 0" />
			<feBlend mode="normal" in2="BackgroundImageFix" result="effect1_dropShadow_3_39" />
			<feBlend mode="normal" in="SourceGraphic" in2="effect1_dropShadow_3_39" result="shape" />
		</filter>
		<filter id="filter13_d_3_39" x="277" y="660" width="24" height="24" filterUnits="userSpaceOnUse" color-interpolation-filters="sRGB">
			<feFlood flood-opacity="0" result="BackgroundImageFix" />
			<feColorMatrix in="SourceAlpha" type="matrix" values="0 0 0 0 0 0 0 0 0 0 0 0 0 0 0 0 0 0 127 0" result="hardAlpha" />
			<feMorphology radius="4" operator="dilate" in="SourceAlpha" result="effect1_dropShadow_3_39" />
			<feOffset />
			<feGaussianBlur stdDeviation="2" />
			<feComposite in2="hardAlpha" operator="out" />
			<feColorMatrix type="matrix" values="0 0 0 0 1 0 0 0 0 1 0 0 0 0 1 0 0 0 0.25 0" />
			<feBlend mode="normal" in2="BackgroundImageFix" result="effect1_dropShadow_3_39" />
			<feBlend mode="normal" in="SourceGraphic" in2="effect1_dropShadow_3_39" result="shape" />
		</filter>
		<filter id="filter14_d_3_39" x="313" y="524" width="21" height="21" filterUnits="userSpaceOnUse" color-interpolation-filters="sRGB">
			<feFlood flood-opacity="0" result="BackgroundImageFix" />
			<feColorMatrix in="SourceAlpha" type="matrix" values="0 0 0 0 0 0 0 0 0 0 0 0 0 0 0 0 0 0 127 0" result="hardAlpha" />
			<feMorphology radius="3" operator="dilate" in="SourceAlpha" result="effect1_dropShadow_3_39" />
			<feOffset />
			<feGaussianBlur stdDeviation="2" />
			<feComposite in2="hardAlpha" operator="out" />
			<feColorMatrix type="matrix" values="0 0 0 0 1 0 0 0 0 1 0 0 0 0 1 0 0 0 0.25 0" />
			<feBlend mode="normal" in2="BackgroundImageFix" result="effect1_dropShadow_3_39" />
			<feBlend mode="normal" in="SourceGraphic" in2="effect1_dropShadow_3_39" result="shape" />
		</filter>
	</defs>
</svg>
